<mxfile host="app.diagrams.net" agent="Mozilla/5.0 (X11; Linux x86_64) AppleWebKit/537.36 (KHTML, like Gecko) Chrome/131.0.0.0 Safari/537.36" version="25.0.3">
  <diagram name="Page-1" id="O7tJ_XTMT47j3ZjIrFe9">
    <mxGraphModel dx="1364" dy="799" grid="1" gridSize="10" guides="1" tooltips="1" connect="1" arrows="1" fold="1" page="1" pageScale="1" pageWidth="850" pageHeight="1100" math="0" shadow="0">
      <root>
        <mxCell id="0" />
        <mxCell id="1" parent="0" />
        <mxCell id="bB8MIb_X-hNjf2Zx4OUO-77" style="edgeStyle=orthogonalEdgeStyle;rounded=0;orthogonalLoop=1;jettySize=auto;html=1;" edge="1" parent="1" source="bB8MIb_X-hNjf2Zx4OUO-1" target="bB8MIb_X-hNjf2Zx4OUO-18">
          <mxGeometry relative="1" as="geometry" />
        </mxCell>
        <mxCell id="bB8MIb_X-hNjf2Zx4OUO-1" value="Process nucleotide sequences, translate and deduplicate them" style="rounded=1;whiteSpace=wrap;html=1;absoluteArcSize=1;arcSize=14;strokeWidth=2;fillColor=#dae8fc;strokeColor=#6c8ebf;" vertex="1" parent="1">
          <mxGeometry x="40" y="110" width="100" height="100" as="geometry" />
        </mxCell>
        <mxCell id="bB8MIb_X-hNjf2Zx4OUO-2" style="edgeStyle=orthogonalEdgeStyle;rounded=0;orthogonalLoop=1;jettySize=auto;html=1;entryX=0.5;entryY=0;entryDx=0;entryDy=0;" edge="1" parent="1" source="bB8MIb_X-hNjf2Zx4OUO-3" target="bB8MIb_X-hNjf2Zx4OUO-1">
          <mxGeometry relative="1" as="geometry" />
        </mxCell>
        <mxCell id="bB8MIb_X-hNjf2Zx4OUO-3" value="Schema" style="strokeWidth=2;html=1;shape=mxgraph.flowchart.document2;whiteSpace=wrap;size=0.25;fillColor=#fff2cc;strokeColor=#d6b656;" vertex="1" parent="1">
          <mxGeometry x="10" y="10" width="100" height="60" as="geometry" />
        </mxCell>
        <mxCell id="bB8MIb_X-hNjf2Zx4OUO-6" value="schema_translation&lt;div&gt;_folder&lt;/div&gt;" style="strokeWidth=2;html=1;shape=mxgraph.flowchart.document2;whiteSpace=wrap;size=0.25;fillColor=#f8cecc;strokeColor=#b85450;" vertex="1" parent="1">
          <mxGeometry x="40" y="260" width="100" height="60" as="geometry" />
        </mxCell>
        <mxCell id="bB8MIb_X-hNjf2Zx4OUO-76" style="edgeStyle=orthogonalEdgeStyle;rounded=0;orthogonalLoop=1;jettySize=auto;html=1;entryX=0;entryY=0.5;entryDx=0;entryDy=0;" edge="1" parent="1" source="bB8MIb_X-hNjf2Zx4OUO-8" target="bB8MIb_X-hNjf2Zx4OUO-18">
          <mxGeometry relative="1" as="geometry">
            <Array as="points">
              <mxPoint x="220" y="160" />
            </Array>
          </mxGeometry>
        </mxCell>
        <mxCell id="bB8MIb_X-hNjf2Zx4OUO-8" value="&lt;div&gt;master_&lt;/div&gt;&lt;div&gt;nucleotide.fasta&lt;/div&gt;" style="strokeWidth=2;html=1;shape=mxgraph.flowchart.document2;whiteSpace=wrap;size=0.25;fillColor=#f8cecc;strokeColor=#b85450;" vertex="1" parent="1">
          <mxGeometry x="170" y="260" width="100" height="60" as="geometry" />
        </mxCell>
        <mxCell id="bB8MIb_X-hNjf2Zx4OUO-9" style="edgeStyle=orthogonalEdgeStyle;rounded=0;orthogonalLoop=1;jettySize=auto;html=1;entryX=0.5;entryY=0;entryDx=0;entryDy=0;entryPerimeter=0;" edge="1" parent="1" source="bB8MIb_X-hNjf2Zx4OUO-1" target="bB8MIb_X-hNjf2Zx4OUO-6">
          <mxGeometry relative="1" as="geometry" />
        </mxCell>
        <mxCell id="bB8MIb_X-hNjf2Zx4OUO-10" style="edgeStyle=orthogonalEdgeStyle;rounded=0;orthogonalLoop=1;jettySize=auto;html=1;entryX=0.25;entryY=0;entryDx=0;entryDy=0;entryPerimeter=0;" edge="1" parent="1" source="bB8MIb_X-hNjf2Zx4OUO-1" target="bB8MIb_X-hNjf2Zx4OUO-8">
          <mxGeometry relative="1" as="geometry">
            <Array as="points">
              <mxPoint x="90" y="240" />
              <mxPoint x="195" y="240" />
            </Array>
          </mxGeometry>
        </mxCell>
        <mxCell id="bB8MIb_X-hNjf2Zx4OUO-18" value="Create BLASTn database" style="rounded=1;whiteSpace=wrap;html=1;absoluteArcSize=1;arcSize=14;strokeWidth=2;fillColor=#dae8fc;strokeColor=#6c8ebf;" vertex="1" parent="1">
          <mxGeometry x="294" y="110" width="100" height="100" as="geometry" />
        </mxCell>
        <mxCell id="bB8MIb_X-hNjf2Zx4OUO-19" style="edgeStyle=orthogonalEdgeStyle;rounded=0;orthogonalLoop=1;jettySize=auto;html=1;entryX=0.5;entryY=0;entryDx=0;entryDy=0;" edge="1" parent="1" source="bB8MIb_X-hNjf2Zx4OUO-20" target="bB8MIb_X-hNjf2Zx4OUO-24">
          <mxGeometry relative="1" as="geometry" />
        </mxCell>
        <mxCell id="bB8MIb_X-hNjf2Zx4OUO-20" value="Run BLASTn" style="rounded=1;whiteSpace=wrap;html=1;absoluteArcSize=1;arcSize=14;strokeWidth=2;fillColor=#dae8fc;strokeColor=#6c8ebf;" vertex="1" parent="1">
          <mxGeometry x="424" y="110" width="100" height="100" as="geometry" />
        </mxCell>
        <mxCell id="bB8MIb_X-hNjf2Zx4OUO-21" style="edgeStyle=orthogonalEdgeStyle;rounded=0;orthogonalLoop=1;jettySize=auto;html=1;entryX=0.5;entryY=1;entryDx=0;entryDy=0;" edge="1" parent="1" source="bB8MIb_X-hNjf2Zx4OUO-22" target="bB8MIb_X-hNjf2Zx4OUO-20">
          <mxGeometry relative="1" as="geometry" />
        </mxCell>
        <mxCell id="bB8MIb_X-hNjf2Zx4OUO-22" value="Blast_db_&lt;div&gt;nucleotide&lt;/div&gt;" style="strokeWidth=2;html=1;shape=mxgraph.flowchart.multi-document;whiteSpace=wrap;fillColor=#f8cecc;strokeColor=#b85450;" vertex="1" parent="1">
          <mxGeometry x="300" y="250" width="88" height="60" as="geometry" />
        </mxCell>
        <mxCell id="bB8MIb_X-hNjf2Zx4OUO-23" style="edgeStyle=orthogonalEdgeStyle;rounded=0;orthogonalLoop=1;jettySize=auto;html=1;entryX=0.5;entryY=0;entryDx=0;entryDy=0;entryPerimeter=0;" edge="1" parent="1" source="bB8MIb_X-hNjf2Zx4OUO-18" target="bB8MIb_X-hNjf2Zx4OUO-22">
          <mxGeometry relative="1" as="geometry" />
        </mxCell>
        <mxCell id="bB8MIb_X-hNjf2Zx4OUO-24" value="Based on BLASTn matches translate the clusters to run in BLASTp" style="rounded=1;whiteSpace=wrap;html=1;absoluteArcSize=1;arcSize=14;strokeWidth=2;fillColor=#dae8fc;strokeColor=#6c8ebf;" vertex="1" parent="1">
          <mxGeometry x="730" y="340" width="100" height="100" as="geometry" />
        </mxCell>
        <mxCell id="bB8MIb_X-hNjf2Zx4OUO-25" value="BLASTn_&lt;div&gt;results&lt;/div&gt;" style="strokeWidth=2;html=1;shape=mxgraph.flowchart.multi-document;whiteSpace=wrap;fillColor=#f8cecc;strokeColor=#b85450;" vertex="1" parent="1">
          <mxGeometry x="524" y="10" width="88" height="60" as="geometry" />
        </mxCell>
        <mxCell id="bB8MIb_X-hNjf2Zx4OUO-26" style="edgeStyle=orthogonalEdgeStyle;rounded=0;orthogonalLoop=1;jettySize=auto;html=1;exitX=0.75;exitY=0;exitDx=0;exitDy=0;entryX=0;entryY=0.5;entryDx=0;entryDy=0;entryPerimeter=0;" edge="1" parent="1" source="bB8MIb_X-hNjf2Zx4OUO-20" target="bB8MIb_X-hNjf2Zx4OUO-25">
          <mxGeometry relative="1" as="geometry" />
        </mxCell>
        <mxCell id="bB8MIb_X-hNjf2Zx4OUO-27" style="edgeStyle=orthogonalEdgeStyle;rounded=0;orthogonalLoop=1;jettySize=auto;html=1;entryX=1;entryY=0.5;entryDx=0;entryDy=0;" edge="1" parent="1" source="bB8MIb_X-hNjf2Zx4OUO-28" target="bB8MIb_X-hNjf2Zx4OUO-37">
          <mxGeometry relative="1" as="geometry" />
        </mxCell>
        <mxCell id="bB8MIb_X-hNjf2Zx4OUO-28" value="blastn_results_&lt;div&gt;matches_&lt;/div&gt;&lt;div&gt;translations&lt;/div&gt;" style="strokeWidth=2;html=1;shape=mxgraph.flowchart.multi-document;whiteSpace=wrap;fillColor=#f8cecc;strokeColor=#b85450;" vertex="1" parent="1">
          <mxGeometry x="612" y="400" width="88" height="60" as="geometry" />
        </mxCell>
        <mxCell id="bB8MIb_X-hNjf2Zx4OUO-29" style="edgeStyle=orthogonalEdgeStyle;rounded=0;orthogonalLoop=1;jettySize=auto;html=1;entryX=1;entryY=0.5;entryDx=0;entryDy=0;" edge="1" parent="1" source="bB8MIb_X-hNjf2Zx4OUO-31" target="bB8MIb_X-hNjf2Zx4OUO-33">
          <mxGeometry relative="1" as="geometry" />
        </mxCell>
        <mxCell id="bB8MIb_X-hNjf2Zx4OUO-30" style="edgeStyle=orthogonalEdgeStyle;rounded=0;orthogonalLoop=1;jettySize=auto;html=1;entryX=1;entryY=0.5;entryDx=0;entryDy=0;" edge="1" parent="1" source="bB8MIb_X-hNjf2Zx4OUO-31" target="bB8MIb_X-hNjf2Zx4OUO-37">
          <mxGeometry relative="1" as="geometry" />
        </mxCell>
        <mxCell id="bB8MIb_X-hNjf2Zx4OUO-31" value="cluster_rep_&lt;div&gt;translation&lt;/div&gt;" style="strokeWidth=2;html=1;shape=mxgraph.flowchart.multi-document;whiteSpace=wrap;fillColor=#f8cecc;strokeColor=#b85450;" vertex="1" parent="1">
          <mxGeometry x="612" y="340" width="88" height="60" as="geometry" />
        </mxCell>
        <mxCell id="bB8MIb_X-hNjf2Zx4OUO-32" style="edgeStyle=orthogonalEdgeStyle;rounded=0;orthogonalLoop=1;jettySize=auto;html=1;entryX=0.5;entryY=0;entryDx=0;entryDy=0;" edge="1" parent="1" source="bB8MIb_X-hNjf2Zx4OUO-33" target="bB8MIb_X-hNjf2Zx4OUO-37">
          <mxGeometry relative="1" as="geometry" />
        </mxCell>
        <mxCell id="bB8MIb_X-hNjf2Zx4OUO-33" value="Calculate self-score" style="rounded=1;whiteSpace=wrap;html=1;absoluteArcSize=1;arcSize=14;strokeWidth=2;fillColor=#dae8fc;strokeColor=#6c8ebf;" vertex="1" parent="1">
          <mxGeometry x="440" y="350" width="100" height="100" as="geometry" />
        </mxCell>
        <mxCell id="bB8MIb_X-hNjf2Zx4OUO-34" style="edgeStyle=orthogonalEdgeStyle;rounded=0;orthogonalLoop=1;jettySize=auto;html=1;entryX=1;entryY=0.5;entryDx=0;entryDy=0;entryPerimeter=0;" edge="1" parent="1" source="bB8MIb_X-hNjf2Zx4OUO-24" target="bB8MIb_X-hNjf2Zx4OUO-31">
          <mxGeometry relative="1" as="geometry" />
        </mxCell>
        <mxCell id="bB8MIb_X-hNjf2Zx4OUO-35" style="edgeStyle=orthogonalEdgeStyle;rounded=0;orthogonalLoop=1;jettySize=auto;html=1;entryX=1;entryY=0.5;entryDx=0;entryDy=0;entryPerimeter=0;" edge="1" parent="1" source="bB8MIb_X-hNjf2Zx4OUO-24" target="bB8MIb_X-hNjf2Zx4OUO-28">
          <mxGeometry relative="1" as="geometry" />
        </mxCell>
        <mxCell id="bB8MIb_X-hNjf2Zx4OUO-36" style="edgeStyle=orthogonalEdgeStyle;rounded=0;orthogonalLoop=1;jettySize=auto;html=1;entryX=1;entryY=0.5;entryDx=0;entryDy=0;" edge="1" parent="1" source="bB8MIb_X-hNjf2Zx4OUO-37" target="bB8MIb_X-hNjf2Zx4OUO-42">
          <mxGeometry relative="1" as="geometry" />
        </mxCell>
        <mxCell id="bB8MIb_X-hNjf2Zx4OUO-37" value="Run BLASTp" style="rounded=1;whiteSpace=wrap;html=1;absoluteArcSize=1;arcSize=14;strokeWidth=2;fillColor=#dae8fc;strokeColor=#6c8ebf;" vertex="1" parent="1">
          <mxGeometry x="440" y="480" width="100" height="100" as="geometry" />
        </mxCell>
        <mxCell id="bB8MIb_X-hNjf2Zx4OUO-38" value="self_score_&lt;div&gt;folder&lt;/div&gt;" style="strokeWidth=2;html=1;shape=mxgraph.flowchart.multi-document;whiteSpace=wrap;fillColor=#f8cecc;strokeColor=#b85450;" vertex="1" parent="1">
          <mxGeometry x="310" y="370" width="88" height="60" as="geometry" />
        </mxCell>
        <mxCell id="bB8MIb_X-hNjf2Zx4OUO-39" style="edgeStyle=orthogonalEdgeStyle;rounded=0;orthogonalLoop=1;jettySize=auto;html=1;entryX=1;entryY=0.5;entryDx=0;entryDy=0;entryPerimeter=0;" edge="1" parent="1" source="bB8MIb_X-hNjf2Zx4OUO-33" target="bB8MIb_X-hNjf2Zx4OUO-38">
          <mxGeometry relative="1" as="geometry" />
        </mxCell>
        <mxCell id="bB8MIb_X-hNjf2Zx4OUO-40" value="BLASTp_&lt;div&gt;results&lt;/div&gt;" style="strokeWidth=2;html=1;shape=mxgraph.flowchart.multi-document;whiteSpace=wrap;fillColor=#f8cecc;strokeColor=#b85450;" vertex="1" parent="1">
          <mxGeometry x="446" y="610" width="88" height="60" as="geometry" />
        </mxCell>
        <mxCell id="bB8MIb_X-hNjf2Zx4OUO-41" style="edgeStyle=orthogonalEdgeStyle;rounded=0;orthogonalLoop=1;jettySize=auto;html=1;entryX=1;entryY=0.5;entryDx=0;entryDy=0;" edge="1" parent="1" source="bB8MIb_X-hNjf2Zx4OUO-42" target="bB8MIb_X-hNjf2Zx4OUO-45">
          <mxGeometry relative="1" as="geometry">
            <Array as="points">
              <mxPoint x="290" y="530" />
              <mxPoint x="290" y="410" />
            </Array>
          </mxGeometry>
        </mxCell>
        <mxCell id="bB8MIb_X-hNjf2Zx4OUO-42" value="Separate BLAST results into classes" style="rounded=1;whiteSpace=wrap;html=1;absoluteArcSize=1;arcSize=14;strokeWidth=2;fillColor=#dae8fc;strokeColor=#6c8ebf;" vertex="1" parent="1">
          <mxGeometry x="304" y="480" width="100" height="100" as="geometry" />
        </mxCell>
        <mxCell id="bB8MIb_X-hNjf2Zx4OUO-43" style="edgeStyle=orthogonalEdgeStyle;rounded=0;orthogonalLoop=1;jettySize=auto;html=1;entryX=0.5;entryY=0;entryDx=0;entryDy=0;entryPerimeter=0;" edge="1" parent="1" source="bB8MIb_X-hNjf2Zx4OUO-37" target="bB8MIb_X-hNjf2Zx4OUO-40">
          <mxGeometry relative="1" as="geometry" />
        </mxCell>
        <mxCell id="bB8MIb_X-hNjf2Zx4OUO-44" style="edgeStyle=orthogonalEdgeStyle;rounded=0;orthogonalLoop=1;jettySize=auto;html=1;entryX=1;entryY=0.5;entryDx=0;entryDy=0;" edge="1" parent="1" source="bB8MIb_X-hNjf2Zx4OUO-45" target="bB8MIb_X-hNjf2Zx4OUO-47">
          <mxGeometry relative="1" as="geometry" />
        </mxCell>
        <mxCell id="bB8MIb_X-hNjf2Zx4OUO-45" value="Process Classes" style="rounded=1;whiteSpace=wrap;html=1;absoluteArcSize=1;arcSize=14;strokeWidth=2;fillColor=#dae8fc;strokeColor=#6c8ebf;" vertex="1" parent="1">
          <mxGeometry x="170" y="360" width="100" height="100" as="geometry" />
        </mxCell>
        <mxCell id="bB8MIb_X-hNjf2Zx4OUO-46" style="edgeStyle=orthogonalEdgeStyle;rounded=0;orthogonalLoop=1;jettySize=auto;html=1;entryX=0.5;entryY=0;entryDx=0;entryDy=0;" edge="1" parent="1" source="bB8MIb_X-hNjf2Zx4OUO-47" target="bB8MIb_X-hNjf2Zx4OUO-50">
          <mxGeometry relative="1" as="geometry" />
        </mxCell>
        <mxCell id="bB8MIb_X-hNjf2Zx4OUO-47" value="Extract Results" style="rounded=1;whiteSpace=wrap;html=1;absoluteArcSize=1;arcSize=14;strokeWidth=2;fillColor=#dae8fc;strokeColor=#6c8ebf;" vertex="1" parent="1">
          <mxGeometry x="40" y="360" width="100" height="100" as="geometry" />
        </mxCell>
        <mxCell id="bB8MIb_X-hNjf2Zx4OUO-48" style="edgeStyle=orthogonalEdgeStyle;rounded=0;orthogonalLoop=1;jettySize=auto;html=1;" edge="1" parent="1" source="bB8MIb_X-hNjf2Zx4OUO-50" target="bB8MIb_X-hNjf2Zx4OUO-51">
          <mxGeometry relative="1" as="geometry" />
        </mxCell>
        <mxCell id="bB8MIb_X-hNjf2Zx4OUO-49" style="edgeStyle=orthogonalEdgeStyle;rounded=0;orthogonalLoop=1;jettySize=auto;html=1;entryX=0.5;entryY=0;entryDx=0;entryDy=0;" edge="1" parent="1" source="bB8MIb_X-hNjf2Zx4OUO-50" target="bB8MIb_X-hNjf2Zx4OUO-57">
          <mxGeometry relative="1" as="geometry" />
        </mxCell>
        <mxCell id="bB8MIb_X-hNjf2Zx4OUO-50" value="Write recommendations summary results" style="rounded=1;whiteSpace=wrap;html=1;absoluteArcSize=1;arcSize=14;strokeWidth=2;fillColor=#dae8fc;strokeColor=#6c8ebf;" vertex="1" parent="1">
          <mxGeometry x="40" y="490" width="100" height="100" as="geometry" />
        </mxCell>
        <mxCell id="bB8MIb_X-hNjf2Zx4OUO-51" value="recommendations.tsv" style="strokeWidth=2;html=1;shape=mxgraph.flowchart.document2;whiteSpace=wrap;size=0.25;fillColor=#d5e8d4;strokeColor=#82b366;" vertex="1" parent="1">
          <mxGeometry x="180" y="470" width="100" height="60" as="geometry" />
        </mxCell>
        <mxCell id="bB8MIb_X-hNjf2Zx4OUO-52" value="related_matches.tsv" style="strokeWidth=2;html=1;shape=mxgraph.flowchart.document2;whiteSpace=wrap;size=0.25;fillColor=#d5e8d4;strokeColor=#82b366;" vertex="1" parent="1">
          <mxGeometry x="180" y="550" width="100" height="60" as="geometry" />
        </mxCell>
        <mxCell id="bB8MIb_X-hNjf2Zx4OUO-53" style="edgeStyle=orthogonalEdgeStyle;rounded=0;orthogonalLoop=1;jettySize=auto;html=1;entryX=0;entryY=0.5;entryDx=0;entryDy=0;entryPerimeter=0;" edge="1" parent="1" source="bB8MIb_X-hNjf2Zx4OUO-50" target="bB8MIb_X-hNjf2Zx4OUO-52">
          <mxGeometry relative="1" as="geometry" />
        </mxCell>
        <mxCell id="bB8MIb_X-hNjf2Zx4OUO-54" value="count_results_&lt;div&gt;by_cluster.tsv&lt;/div&gt;" style="strokeWidth=2;html=1;shape=mxgraph.flowchart.document2;whiteSpace=wrap;size=0.25;fillColor=#d5e8d4;strokeColor=#82b366;" vertex="1" parent="1">
          <mxGeometry x="180" y="630" width="100" height="60" as="geometry" />
        </mxCell>
        <mxCell id="bB8MIb_X-hNjf2Zx4OUO-55" style="edgeStyle=orthogonalEdgeStyle;rounded=0;orthogonalLoop=1;jettySize=auto;html=1;entryX=0;entryY=0.5;entryDx=0;entryDy=0;entryPerimeter=0;" edge="1" parent="1" source="bB8MIb_X-hNjf2Zx4OUO-50" target="bB8MIb_X-hNjf2Zx4OUO-54">
          <mxGeometry relative="1" as="geometry" />
        </mxCell>
        <mxCell id="bB8MIb_X-hNjf2Zx4OUO-56" style="edgeStyle=orthogonalEdgeStyle;rounded=0;orthogonalLoop=1;jettySize=auto;html=1;entryX=0.5;entryY=0;entryDx=0;entryDy=0;" edge="1" parent="1" source="bB8MIb_X-hNjf2Zx4OUO-57" target="bB8MIb_X-hNjf2Zx4OUO-64">
          <mxGeometry relative="1" as="geometry" />
        </mxCell>
        <mxCell id="bB8MIb_X-hNjf2Zx4OUO-57" value="Write BLAST results" style="rounded=1;whiteSpace=wrap;html=1;absoluteArcSize=1;arcSize=14;strokeWidth=2;fillColor=#dae8fc;strokeColor=#6c8ebf;" vertex="1" parent="1">
          <mxGeometry x="40" y="720" width="100" height="100" as="geometry" />
        </mxCell>
        <mxCell id="bB8MIb_X-hNjf2Zx4OUO-58" value="blast_by_cluster" style="strokeWidth=2;html=1;shape=mxgraph.flowchart.document2;whiteSpace=wrap;size=0.25;fillColor=#f8cecc;strokeColor=#b85450;" vertex="1" parent="1">
          <mxGeometry x="180" y="720" width="100" height="60" as="geometry" />
        </mxCell>
        <mxCell id="bB8MIb_X-hNjf2Zx4OUO-59" value="blast_results_by_&lt;div&gt;class&lt;/div&gt;" style="strokeWidth=2;html=1;shape=mxgraph.flowchart.document2;whiteSpace=wrap;size=0.25;fillColor=#f8cecc;strokeColor=#b85450;" vertex="1" parent="1">
          <mxGeometry x="180" y="800" width="100" height="60" as="geometry" />
        </mxCell>
        <mxCell id="bB8MIb_X-hNjf2Zx4OUO-60" value="blast_all_&lt;div&gt;matches.tsv&lt;/div&gt;" style="strokeWidth=2;html=1;shape=mxgraph.flowchart.document2;whiteSpace=wrap;size=0.25;fillColor=#f8cecc;strokeColor=#b85450;" vertex="1" parent="1">
          <mxGeometry x="180" y="880" width="100" height="60" as="geometry" />
        </mxCell>
        <mxCell id="bB8MIb_X-hNjf2Zx4OUO-61" style="edgeStyle=orthogonalEdgeStyle;rounded=0;orthogonalLoop=1;jettySize=auto;html=1;entryX=0;entryY=0.5;entryDx=0;entryDy=0;entryPerimeter=0;" edge="1" parent="1" source="bB8MIb_X-hNjf2Zx4OUO-57" target="bB8MIb_X-hNjf2Zx4OUO-58">
          <mxGeometry relative="1" as="geometry" />
        </mxCell>
        <mxCell id="bB8MIb_X-hNjf2Zx4OUO-62" style="edgeStyle=orthogonalEdgeStyle;rounded=0;orthogonalLoop=1;jettySize=auto;html=1;entryX=0;entryY=0.5;entryDx=0;entryDy=0;entryPerimeter=0;" edge="1" parent="1" source="bB8MIb_X-hNjf2Zx4OUO-57" target="bB8MIb_X-hNjf2Zx4OUO-59">
          <mxGeometry relative="1" as="geometry" />
        </mxCell>
        <mxCell id="bB8MIb_X-hNjf2Zx4OUO-63" style="edgeStyle=orthogonalEdgeStyle;rounded=0;orthogonalLoop=1;jettySize=auto;html=1;entryX=0;entryY=0.5;entryDx=0;entryDy=0;entryPerimeter=0;" edge="1" parent="1" source="bB8MIb_X-hNjf2Zx4OUO-57" target="bB8MIb_X-hNjf2Zx4OUO-60">
          <mxGeometry relative="1" as="geometry" />
        </mxCell>
        <mxCell id="bB8MIb_X-hNjf2Zx4OUO-64" value="Write dropped CDS and dropped possible new loci" style="rounded=1;whiteSpace=wrap;html=1;absoluteArcSize=1;arcSize=14;strokeWidth=2;fillColor=#dae8fc;strokeColor=#6c8ebf;" vertex="1" parent="1">
          <mxGeometry x="40" y="960" width="100" height="100" as="geometry" />
        </mxCell>
        <mxCell id="bB8MIb_X-hNjf2Zx4OUO-65" value="dropped_cds.tsv" style="strokeWidth=2;html=1;shape=mxgraph.flowchart.document2;whiteSpace=wrap;size=0.25;fillColor=#f8cecc;strokeColor=#b85450;" vertex="1" parent="1">
          <mxGeometry x="180" y="950" width="100" height="60" as="geometry" />
        </mxCell>
        <mxCell id="bB8MIb_X-hNjf2Zx4OUO-66" style="edgeStyle=orthogonalEdgeStyle;rounded=0;orthogonalLoop=1;jettySize=auto;html=1;entryX=0;entryY=0.5;entryDx=0;entryDy=0;entryPerimeter=0;" edge="1" parent="1" source="bB8MIb_X-hNjf2Zx4OUO-64" target="bB8MIb_X-hNjf2Zx4OUO-65">
          <mxGeometry relative="1" as="geometry" />
        </mxCell>
        <mxCell id="bB8MIb_X-hNjf2Zx4OUO-67" value="drop_loci_reason.tsv" style="strokeWidth=2;html=1;shape=mxgraph.flowchart.document2;whiteSpace=wrap;size=0.25;fillColor=#f8cecc;strokeColor=#b85450;" vertex="1" parent="1">
          <mxGeometry x="180" y="1010" width="100" height="60" as="geometry" />
        </mxCell>
        <mxCell id="bB8MIb_X-hNjf2Zx4OUO-68" style="edgeStyle=orthogonalEdgeStyle;rounded=0;orthogonalLoop=1;jettySize=auto;html=1;entryX=0;entryY=0.5;entryDx=0;entryDy=0;entryPerimeter=0;" edge="1" parent="1" source="bB8MIb_X-hNjf2Zx4OUO-64" target="bB8MIb_X-hNjf2Zx4OUO-67">
          <mxGeometry relative="1" as="geometry" />
        </mxCell>
        <mxCell id="bB8MIb_X-hNjf2Zx4OUO-69" value="Processes" style="rounded=0;whiteSpace=wrap;html=1;fillColor=#dae8fc;strokeColor=#6c8ebf;" vertex="1" parent="1">
          <mxGeometry x="690" y="785" width="120" height="60" as="geometry" />
        </mxCell>
        <mxCell id="bB8MIb_X-hNjf2Zx4OUO-70" value="Temporary files" style="rounded=0;whiteSpace=wrap;html=1;fillColor=#f8cecc;strokeColor=#b85450;" vertex="1" parent="1">
          <mxGeometry x="690" y="865" width="120" height="60" as="geometry" />
        </mxCell>
        <mxCell id="bB8MIb_X-hNjf2Zx4OUO-71" value="Input files" style="rounded=0;whiteSpace=wrap;html=1;fillColor=#e1d5e7;strokeColor=#9673a6;" vertex="1" parent="1">
          <mxGeometry x="690" y="705" width="120" height="60" as="geometry" />
        </mxCell>
        <mxCell id="bB8MIb_X-hNjf2Zx4OUO-72" value="Output files" style="rounded=0;whiteSpace=wrap;html=1;fillColor=#d5e8d4;strokeColor=#82b366;" vertex="1" parent="1">
          <mxGeometry x="690" y="945" width="120" height="60" as="geometry" />
        </mxCell>
        <mxCell id="bB8MIb_X-hNjf2Zx4OUO-73" value="Color description:" style="text;html=1;align=center;verticalAlign=middle;resizable=0;points=[];autosize=1;strokeColor=none;fillColor=none;" vertex="1" parent="1">
          <mxGeometry x="580" y="660" width="110" height="30" as="geometry" />
        </mxCell>
        <mxCell id="bB8MIb_X-hNjf2Zx4OUO-75" style="edgeStyle=orthogonalEdgeStyle;rounded=0;orthogonalLoop=1;jettySize=auto;html=1;entryX=0.5;entryY=0;entryDx=0;entryDy=0;" edge="1" parent="1" source="bB8MIb_X-hNjf2Zx4OUO-74" target="bB8MIb_X-hNjf2Zx4OUO-1">
          <mxGeometry relative="1" as="geometry" />
        </mxCell>
        <mxCell id="bB8MIb_X-hNjf2Zx4OUO-74" value="Optional: Second schema or possible new loci" style="strokeWidth=2;html=1;shape=mxgraph.flowchart.document2;whiteSpace=wrap;size=0.25;fillColor=#fff2cc;strokeColor=#d6b656;" vertex="1" parent="1">
          <mxGeometry x="120" y="10" width="100" height="60" as="geometry" />
        </mxCell>
      </root>
    </mxGraphModel>
  </diagram>
</mxfile>
